   <svg
      xmlns="http://www.w3.org/2000/svg"
      width="256"
      height="256"
      viewBox="0 0 256 256"
    >
      <g fill="#000" strokeMiterlimit="10" strokeWidth="0">
        <path
          d="M87.994 0H69.342c-1.787 0-2.682 2.16-1.418 3.424l5.795 5.795-33.82 33.82-11.843-11.843-3.174-3.174a2.75 2.75 0 00-3.889 0L.805 48.209a2.75 2.75 0 000 3.889l3.174 3.174a2.75 2.75 0 003.889 0l15.069-15.069 14.994 14.994a2.75 2.75 0 003.889 0l1.614-1.614c.083-.066.17-.125.247-.202l37.1-37.1 5.795 5.795C87.84 23.34 90 22.445 90 20.658V2.006A2.006 2.006 0 0087.994 0z"
          transform="matrix(2.81 0 0 2.81 1.407 1.407)"
        ></path>
        <path
          d="M65.626 37.8v49.45a2.75 2.75 0 002.75 2.75h8.782a2.75 2.75 0 002.75-2.75V23.518L65.626 37.8zM47.115 56.312V87.25a2.75 2.75 0 002.75 2.75h8.782a2.75 2.75 0 002.75-2.75V42.03L47.115 56.312zM39.876 60.503a7.202 7.202 0 01-5.127-2.124l-6.146-6.145V87.25a2.75 2.75 0 002.75 2.75h8.782a2.75 2.75 0 002.75-2.75V59.844a7.212 7.212 0 01-3.009.659zM22.937 46.567L11.051 58.453a7.265 7.265 0 01-.959.8V87.25a2.75 2.75 0 002.75 2.75h8.782a2.75 2.75 0 002.75-2.75V48.004l-1.437-1.437z"
          transform="matrix(2.81 0 0 2.81 1.407 1.407)"
        ></path>
      </g>
    </svg>